<svg xmlns="http://www.w3.org/2000/svg" viewBox="0 0 411.72248 800.00088">
    <path
        d="M191.2195,793.17071a19.09423,19.09423,0,0,0,29.26831,0L405.85365,600.97564a19.85522,19.85522,0,0,0,5.85364-14.63416V213.65853a19.85515,19.85515,0,0,0-5.85364-14.63414L220.48781,6.82926a19.0941,19.0941,0,0,0-29.26831,0L5.85365,199.02439A19.85514,19.85514,0,0,0,0,213.65853v372.683a19.85523,19.85523,0,0,0,5.85365,14.63416Zm19.49-589.34571,65.06793,96.14514a11.968,11.968,0,0,1,1.94232,6.79813V493.23165a11.96784,11.96784,0,0,1-1.94232,6.79816L210.70949,596.175q-1.94233,3.88476-4.85584,3.88464-2.91343-.00009-4.85583-3.88464l-65.06793-96.14514a11.96777,11.96777,0,0,1-1.94233-6.79816V306.76833a11.96761,11.96761,0,0,1,1.94233-6.79813l65.06793-96.14514q1.94234-3.88464,4.85583-3.88464,2.91344,0,4.85584,3.88463ZM48.96638,216.80237,194.1602,52.11949q2.92338-2.92338,7.30841-1.46168t4.385,6.334V106.689a10.84729,10.84729,0,0,1-.97445,4.87228L93.79131,249.93389a8.49125,8.49125,0,0,1-4.385,2.43614,4.63729,4.63729,0,0,1-4.385-1.46168L49.94083,226.547a4.8953,4.8953,0,0,1-2.43613-3.89783,7.96224,7.96224,0,0,1,1.46167-5.84674ZM37.76015,266.49959q0-3.89777,2.92337-5.35949t6.82118.48724l36.05482,24.36139a6.55819,6.55819,0,0,1,2.92337,5.84674V509.139a6.61045,6.61045,0,0,1-1.94891,4.87228l-37.0293,32.157q-2.92334,2.92338-6.334.97449A6.32289,6.32289,0,0,1,37.7601,541.296Z"
        transform="translate(0.0076 0.00046)" style="fill:#333" />
</svg>