<?xml version="1.0" standalone="no"?>
<!DOCTYPE svg PUBLIC "-//W3C//DTD SVG 20010904//EN"
 "http://www.w3.org/TR/2001/REC-SVG-20010904/DTD/svg10.dtd">
<svg version="1.0" xmlns="http://www.w3.org/2000/svg"
 width="2628.000000pt" height="2628.000000pt" viewBox="0 0 2628.000000 2628.000000"
 preserveAspectRatio="xMidYMid meet">
<metadata>
Created by potrace 1.14, written by Peter Selinger 2001-2017
</metadata>
<g transform="translate(0.000000,2628.000000) scale(0.100000,-0.100000)"
fill="#000000" stroke="none">
<path d="M13030 26268 c-62 -9 -87 -18 -180 -61 -78 -36 -139 -96 -858 -845
-41 -43 -163 -169 -272 -282 -109 -113 -230 -239 -270 -280 -40 -41 -127 -132
-194 -201 -213 -220 -539 -559 -606 -629 -36 -37 -164 -170 -285 -295 -121
-126 -242 -252 -270 -280 -27 -29 -150 -156 -273 -283 -123 -127 -247 -255
-275 -285 -29 -30 -146 -153 -262 -272 -115 -120 -235 -244 -265 -275 -30 -32
-154 -160 -275 -285 -121 -125 -249 -257 -283 -294 -35 -36 -153 -158 -262
-271 -109 -113 -230 -239 -270 -280 -40 -41 -163 -169 -273 -284 -111 -115
-231 -239 -267 -276 -56 -58 -352 -364 -560 -580 -342 -353 -372 -392 -418
-525 l-27 -80 -2 -6245 c-2 -6078 -1 -6247 17 -6316 34 -129 76 -203 177 -311
52 -55 209 -218 503 -522 201 -207 520 -539 576 -598 33 -34 151 -157 264
-273 113 -117 231 -240 264 -274 32 -33 157 -162 276 -286 120 -124 244 -253
276 -286 33 -34 151 -157 264 -274 113 -117 234 -242 270 -280 36 -37 160
-166 277 -286 116 -120 243 -253 283 -294 40 -41 163 -169 273 -284 111 -115
231 -239 267 -276 36 -37 157 -163 270 -280 113 -117 236 -244 273 -284 38
-39 164 -169 280 -290 117 -120 236 -244 266 -275 29 -31 145 -150 256 -266
112 -115 235 -244 275 -285 40 -41 165 -172 280 -290 114 -118 240 -249 280
-290 39 -41 99 -103 132 -137 122 -126 262 -191 430 -197 116 -4 209 14 308
61 79 38 151 106 525 495 162 169 530 550 610 633 33 34 157 162 275 285 118
123 244 253 280 290 58 60 347 360 539 559 165 172 480 498 541 561 107 110
483 500 546 567 33 33 147 153 255 265 108 111 232 240 275 285 154 159 480
497 549 568 39 40 165 171 280 291 116 120 230 239 255 264 62 64 473 489 539
559 50 51 299 310 641 664 74 77 152 158 173 179 93 95 145 187 178 315 19 75
19 169 19 6293 0 6147 0 6218 -20 6294 -22 87 -40 129 -86 201 -34 54 -43 63
-354 385 -113 117 -234 243 -270 280 -36 37 -156 161 -266 276 -111 115 -230
238 -264 274 -34 36 -160 166 -280 290 -120 124 -240 248 -267 276 -26 29
-149 156 -273 284 -124 128 -255 263 -291 301 -37 38 -158 164 -270 280 -112
116 -224 233 -249 259 -25 26 -146 152 -270 280 -124 128 -254 263 -290 300
-36 37 -157 163 -270 280 -113 117 -235 244 -272 282 -37 39 -159 165 -270
280 -112 116 -232 241 -268 278 -36 37 -157 163 -270 280 -113 117 -234 243
-270 280 -36 37 -156 161 -267 276 -236 245 -292 303 -553 575 -418 435 -510
523 -580 557 -124 60 -265 81 -400 60z m-68 -1649 c68 -15 119 -49 149 -102
l24 -42 2 -881 c3 -955 4 -938 -51 -1006 -15 -18 -30 -37 -34 -43 -4 -5 -100
-124 -212 -263 -113 -140 -216 -269 -230 -287 -21 -29 -553 -692 -602 -750 -9
-11 -137 -171 -285 -355 -270 -337 -629 -784 -648 -808 -5 -7 -15 -18 -20 -25
-6 -7 -55 -68 -110 -137 -54 -69 -102 -127 -105 -130 -3 -3 -39 -48 -80 -100
-41 -52 -77 -97 -80 -100 -3 -3 -95 -117 -205 -255 -110 -137 -204 -255 -210
-261 -5 -7 -17 -20 -25 -31 -245 -306 -496 -619 -500 -623 -3 -3 -68 -84 -145
-180 -76 -96 -148 -183 -160 -192 -58 -50 -157 -74 -202 -50 -12 7 -194 132
-405 279 -381 265 -526 366 -729 505 -59 40 -117 88 -130 107 -46 66 -27 221
34 282 12 13 144 161 220 249 17 19 49 55 71 80 46 52 71 79 176 200 41 47 89
101 106 120 93 105 216 244 264 300 30 35 62 71 70 79 9 9 61 68 115 131 55
63 118 135 141 160 23 25 57 63 75 85 19 22 41 47 49 55 9 8 42 47 75 85 33
39 62 72 65 75 8 7 311 351 330 374 8 10 22 26 31 35 9 9 49 54 89 101 40 47
86 99 102 115 15 17 36 39 45 51 28 33 202 231 233 264 8 9 42 47 75 85 33 39
64 75 70 81 22 24 138 155 220 249 48 55 104 118 124 140 20 22 104 117 186
210 82 94 161 184 176 200 14 17 50 57 79 90 29 33 69 78 89 101 20 22 63 72
96 109 33 38 101 115 150 170 110 123 214 241 238 269 51 59 124 142 137 156
8 9 44 50 80 91 36 41 69 79 75 85 5 6 37 42 70 79 33 38 65 73 70 79 6 6 37
43 70 81 33 39 63 72 66 75 5 5 186 210 308 350 142 163 171 185 263 199 4 1
31 -4 60 -10z m256 -4937 c16 -12 100 -126 185 -254 86 -128 244 -363 352
-523 109 -159 236 -348 284 -420 47 -71 88 -132 91 -135 6 -6 43 -61 285 -420
99 -146 182 -266 187 -268 4 -2 8 -9 8 -16 0 -7 8 -21 18 -32 9 -11 22 -28 27
-37 6 -9 61 -92 124 -184 63 -93 188 -278 279 -413 92 -135 218 -321 281 -415
76 -112 123 -192 138 -235 l22 -65 1 -3121 c0 -2834 -1 -3125 -16 -3175 -21
-71 -24 -75 -199 -334 -301 -444 -370 -546 -380 -562 -5 -9 -16 -24 -22 -32
-7 -9 -56 -82 -110 -162 -152 -226 -340 -505 -408 -604 -34 -49 -133 -196
-220 -325 -87 -129 -182 -269 -210 -310 -61 -88 -328 -483 -537 -795 -81 -121
-162 -231 -180 -245 -23 -19 -43 -25 -79 -25 -58 0 -91 22 -136 91 -18 27 -55
83 -83 124 -28 41 -122 181 -209 310 -88 129 -164 240 -170 247 -6 7 -11 15
-11 18 0 3 -19 33 -43 68 -61 87 -209 306 -372 547 -135 200 -264 390 -430
635 -45 66 -142 210 -217 320 -191 283 -329 487 -497 735 -101 150 -153 235
-168 280 l-22 65 2 3140 c2 2532 5 3147 15 3177 11 31 138 236 170 274 5 6 36
51 69 100 82 123 471 698 588 869 89 130 327 483 345 511 8 13 69 103 136 201
66 98 183 270 259 383 76 113 157 231 179 263 23 33 48 70 56 83 8 13 109 163
225 335 193 286 233 337 275 351 30 11 89 0 118 -20z m-5309 -1985 c14 -6 42
-24 62 -39 20 -15 40 -28 43 -28 3 0 34 -19 69 -43 34 -24 154 -106 267 -182
113 -76 266 -180 340 -230 74 -50 211 -143 303 -205 139 -93 173 -121 195
-159 l27 -46 0 -3641 0 -3640 -26 -40 c-24 -36 -114 -117 -508 -458 -139 -120
-249 -216 -265 -231 -6 -5 -40 -35 -76 -65 -35 -30 -72 -62 -80 -70 -9 -8 -30
-26 -46 -40 -87 -74 -190 -164 -194 -169 -22 -27 -131 -110 -155 -118 -81 -28
-176 22 -225 117 -20 39 -20 67 -20 4592 0 2932 4 4566 10 4588 14 50 58 98
105 115 43 16 127 12 174 -8z"/>
</g>
</svg>
