<?xml version="1.0" encoding="utf-8"?>
<!-- Generator: Adobe Illustrator 26.0.2, SVG Export Plug-In . SVG Version: 6.00 Build 0)  -->
<svg version="1.1" id="Layer_1" xmlns="http://www.w3.org/2000/svg" xmlns:xlink="http://www.w3.org/1999/xlink" x="0px" y="0px"
	 viewBox="0 0 800 800" style="enable-background:new 0 0 800 800;" xml:space="preserve">
<style type="text/css">
	.st0{fill:url(#SVGID_1_);}
</style>
<linearGradient id="SVGID_1_" gradientUnits="userSpaceOnUse" x1="231" y1="400" x2="569" y2="400" gradientTransform="matrix(0.7071 0.7071 -0.7071 0.7071 399.9999 -165.6854)">
	<stop  offset="0" style="stop-color:#99CCFF"/>
	<stop  offset="1" style="stop-color:#CC66FF"/>
</linearGradient>
<path class="st0" d="M163.3,619.7c-0.4,4.9,1.1,9.1,4.5,12.5s7.6,4.9,12.5,4.5l219.2-4c4.5,0,8.5-1.7,11.9-5.1l216.3-216.3
	c3.4-3.4,5.1-7.4,5.1-11.9l4-219.2c0.4-4.9-1.1-9.1-4.5-12.5s-7.6-4.9-12.5-4.5l-219.2,4c-4.5,0-8.5,1.7-11.9,5.1L172.3,388.7
	c-3.4,3.4-5.1,7.4-5.1,11.9L163.3,619.7z M516.7,288.9l-18,93.6c-0.4,1.9-1.3,3.6-2.8,5.1L387.6,495.8c-1.5,1.5-3.2,2.4-5.1,2.8
	l-93.6,18c-2.3,0.8-3.9,0.6-5.1-0.6c-1.1-1.1-1.3-2.8-0.6-5.1l18-93.6c0.4-1.9,1.3-3.6,2.8-5.1l108.2-108.2c1.5-1.5,3.2-2.4,5.1-2.8
	l93.6-18c2.3-0.8,3.9-0.6,5.1,0.6C517.3,285,517.5,286.7,516.7,288.9z M415.3,202.6l179.9-11.3c2.3,0,4,1.1,5.1,3.4
	c1.1,2.3,0.8,4.3-1.1,6.2l-28.8,28.8c-1.1,1.1-2.3,1.9-3.4,2.3l-144.8,15.8c-1.5,0-2.8-0.4-4-1.1c-1.1-0.8-1.7-1.9-1.7-3.4
	l-6.2-34.5c-0.4-1.1-0.1-2.4,0.8-3.7C412,203.8,413.4,203,415.3,202.6z M379.9,224.9c1.5-1.5,3.1-2,4.8-1.4c1.7,0.6,2.9,2,3.7,4.2
	l6.8,35.1c0.4,1.9-0.2,3.6-1.7,5.1L267.3,394.1c-1.1,1.1-2.5,1.7-4,1.7l-40.2-2.8c-2.3,0-3.7-1-4.2-3.1c-0.6-2.1-0.1-3.9,1.4-5.4
	L379.9,224.9z"/>
</svg>
