<svg xmlns="http://www.w3.org/2000/svg" xmlns:xlink="http://www.w3.org/1999/xlink" viewBox="0 0 473.58654 473.58668"><defs><linearGradient id="a" x1="231" y1="400.00001" x2="569" y2="400.00001" gradientTransform="translate(399.99991 -165.68542) rotate(44.99999)" gradientUnits="userSpaceOnUse"><stop offset="0" stop-color="#9cf"/><stop offset="1" stop-color="#c6f"/></linearGradient></defs><path d="M163.26337,619.746A15.67569,15.67569,0,0,0,180.254,636.73671l219.17965-3.96452a16.30048,16.30048,0,0,0,11.89346-5.09721L627.675,411.32708a16.30047,16.30047,0,0,0,5.0972-11.89347L636.73664,180.254A15.67569,15.67569,0,0,0,619.746,163.2633l-219.17964,3.96453a16.30051,16.30051,0,0,0-11.89347,5.0972L172.325,388.67293a16.30051,16.30051,0,0,0-5.0972,11.89347Zm353.4379-330.8096L498.66051,382.523a9.82544,9.82544,0,0,1-2.81887,5.074L387.597,495.84164a9.8254,9.8254,0,0,1-5.074,2.81888l-93.58654,18.04079q-3.38267,1.12755-5.074-.56377t-.56377-5.074L301.3395,417.477a9.82508,9.82508,0,0,1,2.81887-5.074L412.403,304.15837a9.82518,9.82518,0,0,1,5.074-2.81887l93.58654-18.0408q3.38264-1.12754,5.074.56378T516.70127,288.93644ZM415.27348,202.57579l179.888-11.31374a5.43614,5.43614,0,0,1,5.09117,3.39412,4.95992,4.95992,0,0,1-1.13137,6.22254l-28.85,28.85a8.9052,8.9052,0,0,1-3.39411,2.26274L422.06171,247.83062a6.971,6.971,0,0,1-3.95979-1.13137,3.80708,3.80708,0,0,1-1.69706-3.39411l-6.22255-34.50681a4.01891,4.01891,0,0,1,.84853-3.677A6.53679,6.53679,0,0,1,415.27348,202.57579Zm-35.35534,22.34458a4.469,4.469,0,0,1,4.80833-1.41421q2.54557.84852,3.67695,4.24264l6.78823,35.07249a5.38408,5.38408,0,0,1-1.697,5.09117L267.34677,394.06033a5.42705,5.42705,0,0,1-3.9598,1.69706L223.22331,392.929a3.94841,3.94841,0,0,1-4.24264-3.11127,5.19092,5.19092,0,0,1,1.41421-5.374Z" transform="translate(-163.20673 -163.20667)" style="fill:url(#a)"/></svg>