<svg xmlns="http://www.w3.org/2000/svg" xmlns:xlink="http://www.w3.org/1999/xlink" viewBox="0 0 411.70732 800">
    <defs>
        <linearGradient id="a" x1="194.14634" y1="400.00001" x2="605.85366" y2="400.00001"
            gradientUnits="userSpaceOnUse">
            <stop offset="0" stop-color="#9fbeff" />
            <stop offset="1" stop-color="#c074e9" />
        </linearGradient>
    </defs>
    <path
        d="M385.36585,793.17074a19.09408,19.09408,0,0,0,29.2683,0L600,600.97562a19.85515,19.85515,0,0,0,5.85366-14.63415V213.65854A19.85513,19.85513,0,0,0,600,199.0244L414.63415,6.82927a19.0941,19.0941,0,0,0-29.2683,0L200,199.0244a19.85513,19.85513,0,0,0-5.85366,14.63414V586.34147A19.85515,19.85515,0,0,0,200,600.97562Zm19.49-589.34568,65.06792,96.14515a11.96792,11.96792,0,0,1,1.94233,6.79814V493.23166a11.96791,11.96791,0,0,1-1.94233,6.79815L404.85582,596.175q-1.94235,3.88468-4.85582,3.88466t-4.85582-3.88466l-65.06792-96.14514a11.96768,11.96768,0,0,1-1.94233-6.79815V306.76835a11.96769,11.96769,0,0,1,1.94233-6.79814l65.06792-96.14515q1.94235-3.88464,4.85582-3.88465T404.85582,203.82506Zm-161.7431,12.97737L388.30654,52.1195q2.92338-2.92337,7.30842-1.46168t4.385,6.334V106.689a10.84707,10.84707,0,0,1-.97446,4.87228L287.93766,249.9339a8.49125,8.49125,0,0,1-4.385,2.43614,4.63731,4.63731,0,0,1-4.38505-1.46168L244.08717,226.547a4.8953,4.8953,0,0,1-2.43613-3.89782A7.96225,7.96225,0,0,1,243.11272,216.80243Zm-11.20624,49.69722q0-3.89781,2.92337-5.35951t6.82118.48723l36.05484,24.36138a6.55819,6.55819,0,0,1,2.92337,5.84673V509.139a6.61047,6.61047,0,0,1-1.94891,4.87227l-37.0293,32.157q-2.92336,2.92337-6.334.97446a6.32293,6.32293,0,0,1-3.41059-5.84673Z"
        transform="translate(-194.14634 -0.00001)" style="fill:url(#a)" />
</svg>